<?xml version="1.0" encoding="UTF-8" standalone="no"?>
<svg
   xmlns:dc="http://purl.org/dc/elements/1.1/"
   xmlns:cc="http://creativecommons.org/ns#"
   xmlns:rdf="http://www.w3.org/1999/02/22-rdf-syntax-ns#"
   xmlns:svg="http://www.w3.org/2000/svg"
   xmlns="http://www.w3.org/2000/svg"
   xmlns:sodipodi="http://sodipodi.sourceforge.net/DTD/sodipodi-0.dtd"
   xmlns:inkscape="http://www.inkscape.org/namespaces/inkscape"
   inkscape:version="1.0 (4035a4fb49, 2020-05-01)"
   sodipodi:docname="org.fedoraproject.AnacondaInstaller-symbolic.svg"
   id="svg10"
   version="1.0"
   height="16"
   width="16">
  <metadata
     id="metadata16">
    <rdf:RDF>
      <cc:Work
         rdf:about="">
        <dc:format>image/svg+xml</dc:format>
        <dc:type
           rdf:resource="http://purl.org/dc/dcmitype/StillImage" />
        <dc:title />
      </cc:Work>
    </rdf:RDF>
  </metadata>
  <defs
     id="defs14" />
  <sodipodi:namedview
     inkscape:document-rotation="0"
     inkscape:current-layer="svg10"
     inkscape:window-maximized="1"
     inkscape:window-y="-8"
     inkscape:window-x="-8"
     inkscape:cy="9.9527991"
     inkscape:cx="13.455401"
     inkscape:zoom="22.671611"
     showgrid="false"
     id="namedview12"
     inkscape:window-height="1017"
     inkscape:window-width="1920"
     inkscape:pageshadow="2"
     inkscape:pageopacity="0"
     guidetolerance="10"
     gridtolerance="10"
     objecttolerance="10"
     borderopacity="1"
     bordercolor="#666666"
     pagecolor="#ffffff" />
  <g
     id="g8"
     color="#000"
     stroke-width="5"
     transform="matrix(.2 0 0 .2 -25.6 -111.1)">
    <rect
       id="rect4"
       opacity=".257"
       overflow="visible"
       style="marker:none"
       width="59.946"
       height="8"
       x="138"
       y="625.5"
       rx="4"
       ry="4" />
    <rect
       id="rect6"
       overflow="visible"
       style="marker:none"
       width="38.125"
       height="8"
       x="138"
       y="625.5"
       rx="4"
       ry="4" />
  </g>
  <path
     style="stroke-width:0.063305;fill:#000000"
     fill-rule="evenodd"
     clip-rule="evenodd"
     d="m 13.702937,9.0028214 c 0.219099,-0.6274793 0.338173,-1.3018666 0.338173,-2.004105 0,-3.3563776 -2.720903,-6.07726452 -6.0772627,-6.07726452 -3.3563785,0 -6.0772655,2.72088692 -6.0772655,6.07726452 0,1.6607362 0.6661567,3.1659386 1.7458407,4.2628186 L 9.7970283,5.0969377 11.319004,6.618887 Z M 12.592824,10.936595 9.7970283,8.1408627 5.4188519,12.519025 c 0.7741622,0.357485 1.6362847,0.556955 2.5449954,0.556955 1.8540714,0 3.5143057,-0.830308 4.6289767,-2.139385 z"
     fill="#10b981"
     id="path2" />
</svg>
