<svg width="145" height="128" viewBox="0 0 145 128" fill="none" xmlns="http://www.w3.org/2000/svg">
<path d="M24.3322 67.9572C24.7648 66.7182 25 65.3866 25 64C25 57.3726 19.6274 52 13 52C6.37258 52 1 57.3726 1 64C1 67.2793 2.31537 70.2513 4.44728 72.4173L16.6198 60.2448L24.3322 67.9572Z" fill="#10B981"/>
<path d="M22.1403 71.7757L16.6198 66.2552L7.97472 74.9003C9.50336 75.6062 11.2057 76 13 76C16.6611 76 19.9392 74.3605 22.1403 71.7757Z" fill="#10B981"/>
<path d="M33 70.1323V57.5397H39.4558C40.1228 57.5397 40.7331 57.6356 41.2868 57.8275C41.8531 58.0194 42.3376 58.2892 42.7403 58.637C43.143 58.9728 43.4576 59.3806 43.6841 59.8603C43.9107 60.34 44.0239 60.8677 44.0239 61.4434C44.0239 62.2349 43.7848 62.9425 43.3066 63.5661C42.841 64.1898 42.2181 64.6515 41.4378 64.9513L44.3637 70.1323H41.3057L38.7196 65.3111H35.7371V70.1323H33ZM39.2104 59.7884H35.7371V63.1704H39.2104C39.827 63.1704 40.3178 63.0145 40.6828 62.7026C41.0603 62.3908 41.2491 61.9831 41.2491 61.4794C41.2491 60.9757 41.0603 60.5679 40.6828 60.2561C40.3178 59.9443 39.827 59.7884 39.2104 59.7884Z" fill="black"/>
<path d="M44.6174 65.455C44.6174 64.7714 44.7495 64.1358 45.0138 63.5481C45.2906 62.9485 45.6619 62.4328 46.1275 62.0011C46.6057 61.5573 47.1657 61.2095 47.8075 60.9577C48.4493 60.7058 49.1352 60.5799 49.8651 60.5799C50.5949 60.5799 51.2808 60.7058 51.9226 60.9577C52.5644 61.2095 53.1181 61.5573 53.5837 62.0011C54.0619 62.4328 54.4332 62.9485 54.6975 63.5481C54.9743 64.1358 55.1127 64.7714 55.1127 65.455C55.1127 66.1386 54.9743 66.7802 54.6975 67.3799C54.4332 67.9675 54.0619 68.4772 53.5837 68.909C53.1181 69.3407 52.5644 69.6825 51.9226 69.9344C51.2808 70.1862 50.5949 70.3122 49.8651 70.3122C49.1352 70.3122 48.4493 70.1862 47.8075 69.9344C47.1657 69.6825 46.6057 69.3407 46.1275 68.909C45.6619 68.4772 45.2906 67.9675 45.0138 67.3799C44.7495 66.7802 44.6174 66.1386 44.6174 65.455ZM49.8651 68.1714C50.6201 68.1714 51.2619 67.9076 51.7905 67.3799C52.319 66.8522 52.5833 66.2106 52.5833 65.455C52.5833 64.6875 52.319 64.0399 51.7905 63.5122C51.2619 62.9845 50.6201 62.7206 49.8651 62.7206C49.11 62.7206 48.4682 62.9845 47.9396 63.5122C47.4111 64.0399 47.1468 64.6875 47.1468 65.455C47.1468 66.2106 47.4111 66.8522 47.9396 67.3799C48.4682 67.9076 49.11 68.1714 49.8651 68.1714Z" fill="black"/>
<path d="M61.5896 68.1534C62.0301 68.1534 62.4391 68.0695 62.8166 67.9016C63.2067 67.7337 63.578 67.4698 63.9303 67.1101L65.4782 68.6392C64.9748 69.1668 64.3708 69.5806 63.666 69.8804C62.9613 70.1683 62.2314 70.3122 61.4764 70.3122C60.7591 70.3122 60.0795 70.1862 59.4377 69.9344C58.8085 69.6825 58.2611 69.3407 57.7954 68.909C57.3424 68.4772 56.9837 67.9675 56.7195 67.3799C56.4552 66.7802 56.3231 66.1386 56.3231 65.455C56.3231 64.7714 56.4552 64.1358 56.7195 63.5481C56.9837 62.9485 57.3424 62.4328 57.7954 62.0011C58.2611 61.5573 58.8085 61.2095 59.4377 60.9577C60.0795 60.7058 60.7591 60.5799 61.4764 60.5799C62.2566 60.5799 63.0054 60.7298 63.7227 61.0296C64.44 61.3175 65.0503 61.7252 65.5537 62.2529L63.9681 63.854C63.6157 63.4822 63.2382 63.2004 62.8355 63.0085C62.4328 62.8166 61.9986 62.7206 61.533 62.7206C60.7905 62.7206 60.1613 62.9845 59.6453 63.5122C59.142 64.0399 58.8903 64.6875 58.8903 65.455C58.8903 66.2226 59.1483 66.8642 59.6642 67.3799C60.1928 67.8956 60.8346 68.1534 61.5896 68.1534Z" fill="black"/>
<path d="M66.8227 70.1323V57.5397L69.4088 57V64.7175L73.656 60.7598H76.5819L71.976 65.0593L76.8651 70.1323H73.5617L69.4088 65.8508V70.1323H66.8227Z" fill="black"/>
<path d="M80.3973 70.564L80.5484 70.2222L76.7164 60.7598H79.5668L82.0018 67.146L84.7956 60.7598H87.5893L83.0589 70.8698C82.5556 71.9972 81.9704 72.8007 81.3034 73.2804C80.6364 73.7601 79.7681 74 78.6984 74C78.4719 74 78.2517 73.988 78.0378 73.964C77.8364 73.952 77.6728 73.928 77.547 73.8921V71.7693C77.6728 71.7933 77.805 71.8113 77.9434 71.8233C78.0818 71.8353 78.2517 71.8413 78.4531 71.8413C78.9187 71.8413 79.3088 71.7333 79.6234 71.5175C79.9506 71.3016 80.2086 70.9838 80.3973 70.564Z" fill="black"/>
<path d="M92.7329 70.1323V57.5397H94.1864V68.891H102.058V70.1323H92.7329Z" fill="black"/>
<path d="M104.559 59.3926C104.308 59.3926 104.087 59.3026 103.899 59.1228C103.71 58.9429 103.616 58.733 103.616 58.4931C103.616 58.2413 103.71 58.0314 103.899 57.8635C104.087 57.6836 104.308 57.5937 104.559 57.5937C104.824 57.5937 105.044 57.6836 105.22 57.8635C105.409 58.0314 105.503 58.2413 105.503 58.4931C105.503 58.733 105.409 58.9429 105.22 59.1228C105.044 59.3026 104.824 59.3926 104.559 59.3926ZM105.258 61.1196V70.1323H103.861V61.1196H105.258Z" fill="black"/>
<path d="M107.64 70.1323V61.1196H109.037V62.181C109.402 61.7732 109.836 61.4674 110.339 61.2635C110.843 61.0476 111.403 60.9397 112.019 60.9397C113.089 60.9397 113.964 61.2635 114.643 61.9111C115.323 62.5587 115.662 63.3982 115.662 64.4296V70.1323H114.284V64.6995C114.284 63.9079 114.045 63.2783 113.567 62.8106C113.089 62.3429 112.447 62.109 111.642 62.109C111.075 62.109 110.566 62.2289 110.113 62.4688C109.672 62.7086 109.314 63.0504 109.037 63.4942V70.1323H107.64Z" fill="black"/>
<path d="M119.248 61.1196V66.5524C119.248 67.3439 119.487 67.9735 119.965 68.4413C120.444 68.909 121.085 69.1429 121.891 69.1429C122.457 69.1429 122.96 69.0229 123.401 68.7831C123.854 68.5312 124.219 68.1834 124.496 67.7397V61.1196H125.893V70.1323H124.496V69.0889C124.131 69.4966 123.697 69.8025 123.193 70.0063C122.702 70.2102 122.149 70.3122 121.532 70.3122C120.45 70.3122 119.569 69.9884 118.889 69.3407C118.21 68.6931 117.87 67.8536 117.87 66.8222V61.1196H119.248Z" fill="black"/>
<path d="M127.173 70.1323L130.892 65.491L127.362 61.1196H129.023L131.703 64.5016L134.384 61.1196H135.988L132.496 65.473L136.234 70.1323H134.573L131.684 66.4624L128.759 70.1323H127.173Z" fill="black"/>
<path d="M137.467 60.5909V58.636H136.788V58.2583H137.467V57.4967L137.927 57.3828V58.2583H138.877V58.636H137.927V60.477C137.927 60.6369 137.964 60.7528 138.04 60.8248C138.115 60.8927 138.239 60.9267 138.411 60.9267C138.499 60.9267 138.577 60.9207 138.644 60.9087C138.715 60.8967 138.791 60.8767 138.87 60.8487V61.2385C138.791 61.2665 138.7 61.2865 138.6 61.2985C138.503 61.3105 138.409 61.3165 138.317 61.3165C138.044 61.3165 137.834 61.2545 137.687 61.1306C137.541 61.0066 137.467 60.8267 137.467 60.5909Z" fill="black"/>
<path d="M139.375 61.2625V58.2583H139.841V58.5881C139.958 58.4601 140.095 58.3642 140.25 58.3002C140.405 58.2323 140.577 58.1983 140.766 58.1983C140.984 58.1983 141.179 58.2483 141.351 58.3482C141.527 58.4442 141.663 58.5761 141.76 58.744C141.89 58.5601 142.045 58.4242 142.226 58.3362C142.41 58.2443 142.616 58.1983 142.842 58.1983C143.182 58.1983 143.459 58.3062 143.673 58.5221C143.891 58.738 144 59.0178 144 59.3616V61.2625H143.541V59.4516C143.541 59.1877 143.467 58.9778 143.32 58.8219C143.174 58.666 142.974 58.5881 142.723 58.5881C142.551 58.5881 142.393 58.63 142.251 58.714C142.108 58.7979 141.986 58.9199 141.886 59.0798C141.894 59.1238 141.901 59.1697 141.905 59.2177C141.913 59.2617 141.917 59.3096 141.917 59.3616V61.2625H141.458V59.4516C141.458 59.1877 141.385 58.9778 141.238 58.8219C141.091 58.666 140.894 58.5881 140.646 58.5881C140.478 58.5881 140.325 58.626 140.187 58.702C140.053 58.774 139.937 58.8819 139.841 59.0258V61.2625H139.375Z" fill="black"/>
</svg>
