<?xml version="1.0" encoding="UTF-8" standalone="no"?>
<!-- Created with Inkscape (http://www.inkscape.org/) -->

<svg
   xmlns:dc="http://purl.org/dc/elements/1.1/"
   xmlns:cc="http://creativecommons.org/ns#"
   xmlns:rdf="http://www.w3.org/1999/02/22-rdf-syntax-ns#"
   xmlns:svg="http://www.w3.org/2000/svg"
   xmlns="http://www.w3.org/2000/svg"
   xmlns:sodipodi="http://sodipodi.sourceforge.net/DTD/sodipodi-0.dtd"
   xmlns:inkscape="http://www.inkscape.org/namespaces/inkscape"
   width="145.47487"
   height="128"
   viewBox="0 0 38.490225 33.866668"
   version="1.1"
   id="svg8"
   inkscape:version="0.92.4 (unknown)"
   sodipodi:docname="centos-logo-8-sprite.svg"
   inkscape:export-filename="/home/al/Projects/CentOS/centos-8-packages/centos-logos/centos-logos-80.5/pixmaps/fedora-logo-sprite.png"
   inkscape:export-xdpi="96"
   inkscape:export-ydpi="96">
  <defs
     id="defs2" />
  <sodipodi:namedview
     id="base"
     pagecolor="#ffffff"
     bordercolor="#666666"
     borderopacity="1.0"
     inkscape:pageopacity="0.0"
     inkscape:pageshadow="2"
     inkscape:zoom="1"
     inkscape:cx="78.237435"
     inkscape:cy="45.000035"
     inkscape:document-units="px"
     inkscape:current-layer="layer1"
     showgrid="false"
     inkscape:window-width="1525"
     inkscape:window-height="446"
     inkscape:window-x="257"
     inkscape:window-y="41"
     inkscape:window-maximized="0"
     units="px"
     showguides="true"
     inkscape:guide-bbox="true"
     fit-margin-top="0"
     fit-margin-left="0"
     fit-margin-right="0"
     fit-margin-bottom="0"
     inkscape:pagecheckerboard="false"
     showborder="true"
     inkscape:showpageshadow="false"
     borderlayer="true"
     scale-x="0.46458" />
  <metadata
     id="metadata5">
    <rdf:RDF>
      <cc:Work
         rdf:about="">
        <dc:format>image/svg+xml</dc:format>
        <dc:type
           rdf:resource="http://purl.org/dc/dcmitype/StillImage" />
        <dc:title></dc:title>
      </cc:Work>
    </rdf:RDF>
  </metadata>
  <g
     inkscape:label="Layer 1"
     inkscape:groupmode="layer"
     id="layer1"
     transform="translate(-10.006795,-122.79071)">
    <g
       aria-label="CENTOS 8"
       style="font-style:normal;font-variant:normal;font-weight:normal;font-stretch:normal;font-size:8.03982544px;line-height:1.25;font-family:Overpass;-inkscape-font-specification:'Overpass, Normal';font-variant-ligatures:normal;font-variant-caps:normal;font-variant-numeric:normal;font-feature-settings:normal;text-align:center;letter-spacing:0px;word-spacing:0px;writing-mode:lr-tb;text-anchor:middle;fill:#0088ce;fill-opacity:0.98823529;stroke:none;stroke-width:0.90530401"
       id="text1133"
       transform="matrix(0.90909143,0,0,0.90909143,0.95780933,8.661203)">
      <path
         d="m 12.907711,147.64546 c 1.037138,0 1.672284,-0.61103 2.074275,-1.47933 l -1.117536,-0.41807 c -0.257274,0.42611 -0.546708,0.72359 -0.956739,0.72359 -0.771823,0 -1.101456,-0.92458 -1.101456,-1.72053 0,-0.77182 0.265314,-1.72052 1.101456,-1.72052 0.44219,0 0.691425,0.2412 0.972819,0.66731 l 1.093416,-0.49043 c -0.273354,-0.68339 -0.980859,-1.35069 -2.066235,-1.35069 -1.752682,0 -2.371748,1.616 -2.371748,2.89433 0,1.39089 0.602986,2.89434 2.371748,2.89434 z"
         style="font-style:normal;font-variant:normal;font-weight:900;font-stretch:normal;font-family:Overpass;-inkscape-font-specification:'Overpass Heavy';fill:#0088ce;fill-opacity:0.98823529"
         id="path1137"
         inkscape:connector-curvature="0" />
      <path
         d="m 15.840363,147.56506 h 4.204829 v -1.16577 h -2.982775 v -1.15774 h 1.575805 v -1.15773 h -1.575805 v -0.9889 h 2.821978 v -1.15773 h -4.044032 z"
         style="font-style:normal;font-variant:normal;font-weight:900;font-stretch:normal;font-family:Overpass;-inkscape-font-specification:'Overpass Heavy';fill:#0088ce;fill-opacity:0.98823529"
         id="path1139"
         inkscape:connector-curvature="0" />
      <path
         d="m 25.574331,147.56506 v -5.62787 h -1.222053 v 2.94257 c 0,0.0884 0.008,0.31355 0.02412,0.42611 -0.04824,-0.12059 -0.176876,-0.33767 -0.233155,-0.41807 l -2.066235,-2.95061 h -1.117536 v 5.62787 h 1.205974 v -2.98277 c 0,-0.10452 0,-0.28944 -0.02412,-0.42611 0.06432,0.12863 0.184916,0.35375 0.241194,0.42611 l 2.122514,2.98277 z"
         style="font-style:normal;font-variant:normal;font-weight:900;font-stretch:normal;font-family:Overpass;-inkscape-font-specification:'Overpass Heavy';fill:#0088ce;fill-opacity:0.98823529"
         id="path1141"
         inkscape:connector-curvature="0" />
      <path
         d="m 29.245768,143.111 h 1.616005 v -1.17381 h -4.454064 v 1.17381 h 1.616005 v 4.45406 h 1.222054 z"
         style="font-style:normal;font-variant:normal;font-weight:900;font-stretch:normal;font-family:Overpass;-inkscape-font-specification:'Overpass Heavy';fill:#0088ce;fill-opacity:0.98823529"
         id="path1143"
         inkscape:connector-curvature="0" />
      <path
         d="m 33.85824,147.66154 c 1.817001,0 2.492346,-1.51953 2.492346,-2.91042 0,-1.39089 -0.675345,-2.91041 -2.492346,-2.91041 -1.82504,0 -2.500386,1.51952 -2.500386,2.91041 0,1.39089 0.675346,2.91042 2.500386,2.91042 z m 0,-1.18185 c -0.92458,0 -1.230093,-0.9487 -1.230093,-1.72857 0,-0.75574 0.297473,-1.7366 1.230093,-1.7366 0.92458,0 1.222054,0.94066 1.222054,1.7366 0,0.74771 -0.329633,1.72857 -1.222054,1.72857 z"
         style="font-style:normal;font-variant:normal;font-weight:900;font-stretch:normal;font-family:Overpass;-inkscape-font-specification:'Overpass Heavy';fill:#0088ce;fill-opacity:0.98823529"
         id="path1145"
         inkscape:connector-curvature="0" />
      <path
         d="m 39.290775,147.66154 c 1.173814,0 2.098394,-0.63514 2.098394,-1.72856 0,-1.24617 -1.101456,-1.59993 -1.953677,-1.87328 -0.522589,-0.17688 -0.95674,-0.31355 -0.95674,-0.60299 0,-0.29747 0.241195,-0.45827 0.683385,-0.45827 0.506509,0 0.771824,0.25728 0.92458,0.60299 l 1.093417,-0.35375 c -0.217076,-0.79595 -0.91654,-1.40697 -1.953678,-1.40697 -1.254213,0 -1.969757,0.72358 -1.969757,1.59188 0,1.17382 0.996938,1.48737 1.84112,1.76072 0.586907,0.18492 1.069297,0.33768 1.069297,0.73163 0,0.38591 -0.337673,0.57887 -0.844182,0.57887 -0.514549,0 -0.948699,-0.36984 -1.197934,-0.90046 l -1.093416,0.41003 c 0.337672,1.02909 1.165774,1.64816 2.259191,1.64816 z"
         style="font-style:normal;font-variant:normal;font-weight:900;font-stretch:normal;font-family:Overpass;-inkscape-font-specification:'Overpass Heavy';fill:#0088ce;fill-opacity:0.98823529"
         id="path1147"
         inkscape:connector-curvature="0" />
      <path
         d="m 46.080156,147.66154 c 1.117535,0 1.897398,-0.73162 1.897398,-1.71248 0,-0.69947 -0.393951,-1.23009 -0.972818,-1.47933 0.474349,-0.23315 0.723584,-0.65927 0.723584,-1.16577 0,-0.81203 -0.675345,-1.46325 -1.648164,-1.46325 -0.964779,0 -1.640125,0.65122 -1.640125,1.46325 0,0.5065 0.257275,0.93262 0.715545,1.16577 -0.562788,0.2412 -0.964779,0.77986 -0.964779,1.47933 0,0.98086 0.779863,1.71248 1.889359,1.71248 z m 0,-3.4732 c -0.562788,0 -0.93262,-0.3618 -0.93262,-0.82811 0,-0.53062 0.393951,-0.8683 0.93262,-0.8683 0.546708,0 0.940659,0.33768 0.940659,0.8683 0,0.46631 -0.377872,0.82811 -0.940659,0.82811 z m 0,2.81394 c -0.675346,0 -1.165775,-0.42612 -1.165775,-1.1095 0,-0.60299 0.47435,-1.11754 1.165775,-1.11754 0.691425,0 1.173814,0.51455 1.173814,1.11754 0,0.68338 -0.498469,1.1095 -1.173814,1.1095 z"
         style="stroke-width:0.90530401;fill:#0088ce;fill-opacity:0.98823529"
         id="path1149"
         inkscape:connector-curvature="0" />
    </g>
  </g>
</svg>
