<?xml version="1.0" encoding="UTF-8" standalone="no"?>
<!-- Created with Inkscape (http://www.inkscape.org/) -->

<svg
   width="145.47487"
   height="128"
   viewBox="0 0 38.490225 33.866668"
   version="1.1"
   id="svg8"
   inkscape:version="1.1 (c68e22c387, 2021-05-23)"
   sodipodi:docname="fedora-logo-sprite.svg"
   inkscape:export-filename="/home/label/git/assets/rocky-logos/pixmaps/fedora-logo-sprite.png"
   inkscape:export-xdpi="96"
   inkscape:export-ydpi="96"
   xmlns:inkscape="http://www.inkscape.org/namespaces/inkscape"
   xmlns:sodipodi="http://sodipodi.sourceforge.net/DTD/sodipodi-0.dtd"
   xmlns="http://www.w3.org/2000/svg"
   xmlns:svg="http://www.w3.org/2000/svg"
   xmlns:rdf="http://www.w3.org/1999/02/22-rdf-syntax-ns#"
   xmlns:cc="http://creativecommons.org/ns#"
   xmlns:dc="http://purl.org/dc/elements/1.1/">
  <defs
     id="defs2" />
  <sodipodi:namedview
     id="base"
     pagecolor="#ffffff"
     bordercolor="#666666"
     borderopacity="1.0"
     inkscape:pageopacity="0.0"
     inkscape:pageshadow="2"
     inkscape:zoom="4"
     inkscape:cx="-4.5"
     inkscape:cy="64.25"
     inkscape:document-units="px"
     inkscape:current-layer="text1133"
     showgrid="false"
     inkscape:window-width="1536"
     inkscape:window-height="936"
     inkscape:window-x="56"
     inkscape:window-y="50"
     inkscape:window-maximized="0"
     units="px"
     showguides="true"
     inkscape:guide-bbox="true"
     fit-margin-top="0"
     fit-margin-left="0"
     fit-margin-right="0"
     fit-margin-bottom="0"
     inkscape:pagecheckerboard="false"
     showborder="true"
     inkscape:showpageshadow="false"
     borderlayer="true"
     scale-x="0.46458" />
  <metadata
     id="metadata5">
    <rdf:RDF>
      <cc:Work
         rdf:about="">
        <dc:format>image/svg+xml</dc:format>
        <dc:type
           rdf:resource="http://purl.org/dc/dcmitype/StillImage" />
      </cc:Work>
    </rdf:RDF>
  </metadata>
  <g
     inkscape:label="Layer 1"
     inkscape:groupmode="layer"
     id="layer1"
     transform="translate(-10.006795,-122.79071)">
    <g
       aria-label="CENTOS 8"
       style="font-style:normal;font-variant:normal;font-weight:normal;font-stretch:normal;font-size:8.03982544px;line-height:1.25;font-family:Overpass;-inkscape-font-specification:'Overpass, Normal';font-variant-ligatures:normal;font-variant-caps:normal;font-variant-numeric:normal;font-feature-settings:normal;text-align:center;letter-spacing:0px;word-spacing:0px;writing-mode:lr-tb;text-anchor:middle;fill:#0088ce;fill-opacity:0.98823529;stroke:none;stroke-width:0.90530401"
       id="text1133"
       transform="matrix(0.90909143,0,0,0.90909143,0.95780933,8.661203)">
      <g
         aria-label="ROCKY 8"
         id="text8685"
         style="font-weight:900;font-size:9.31333px;font-family:'Rocky Display';-inkscape-font-specification:'Rocky Display Heavy';fill:#10b981;fill-opacity:1;stroke-width:0.263481">
        <path
           id="path838"
           style="font-weight:normal;-inkscape-font-specification:'Rocky Display'"
           sodipodi:type="inkscape:offset"
           inkscape:radius="0"
           inkscape:original="M 20.337891 140.80664 C 19.853597 140.80664 19.397163 140.89451 18.96875 141.06836 C 18.540337 141.24221 18.171772 141.48092 17.861328 141.78516 C 17.550884 142.08318 17.305058 142.43947 17.125 142.85547 C 16.944942 143.26526 16.855469 143.70426 16.855469 144.16992 C 16.855469 144.63559 16.944942 145.07619 17.125 145.49219 C 17.305058 145.90197 17.550884 146.25827 17.861328 146.5625 C 18.171772 146.86053 18.540337 147.09568 18.96875 147.26953 C 19.397163 147.44338 19.853597 147.53125 20.337891 147.53125 C 20.822183 147.53125 21.278618 147.44338 21.707031 147.26953 C 22.135445 147.09568 22.505962 146.86053 22.816406 146.5625 C 23.126851 146.25827 23.372677 145.90197 23.552734 145.49219 C 23.732792 145.07619 23.822266 144.63559 23.822266 144.16992 C 23.822266 143.70426 23.732792 143.26526 23.552734 142.85547 C 23.372677 142.43947 23.126851 142.08318 22.816406 141.78516 C 22.505962 141.48092 22.135445 141.24221 21.707031 141.06836 C 21.278618 140.89451 20.822183 140.80664 20.337891 140.80664 z M 27.9375 140.80664 C 27.446998 140.80664 26.98896 140.89451 26.560547 141.06836 C 26.132134 141.24221 25.75806 141.47736 25.441406 141.77539 C 25.130962 142.07342 24.887089 142.42971 24.707031 142.8457 C 24.526974 143.25549 24.4375 143.69804 24.4375 144.16992 C 24.4375 144.6418 24.526974 145.0824 24.707031 145.49219 C 24.887089 145.90197 25.130962 146.25471 25.441406 146.55273 C 25.751851 146.85076 26.122368 147.08787 26.550781 147.26172 C 26.985403 147.43557 27.446998 147.52148 27.9375 147.52148 C 28.459046 147.52148 28.966529 147.40746 29.457031 147.17773 C 29.953743 146.94801 30.353968 146.64242 30.658203 146.26367 L 29.605469 145.23047 C 29.388157 145.49745 29.142331 145.69934 28.869141 145.83594 C 28.602158 145.97253 28.310793 146.04102 27.994141 146.04102 C 27.720949 146.04102 27.466406 145.99352 27.230469 145.90039 C 27.000739 145.80105 26.798849 145.66764 26.625 145.5 C 26.45736 145.33236 26.323951 145.13758 26.224609 144.91406 C 26.131476 144.68434 26.085938 144.4369 26.085938 144.16992 C 26.085937 143.90294 26.131476 143.65355 26.224609 143.42383 C 26.323951 143.18789 26.453803 142.986 26.615234 142.81836 C 26.782874 142.65072 26.979605 142.52087 27.203125 142.42773 C 27.432854 142.32839 27.676727 142.2793 27.9375 142.2793 C 28.266571 142.2793 28.572163 142.35294 28.851562 142.50195 C 29.137171 142.64476 29.395271 142.85892 29.625 143.14453 L 30.705078 142.08203 C 30.556065 141.88956 30.378721 141.71577 30.173828 141.56055 C 29.968935 141.39912 29.746053 141.26571 29.503906 141.16016 C 29.26176 141.04838 29.007216 140.96246 28.740234 140.90039 C 28.473252 140.83832 28.204482 140.80664 27.9375 140.80664 z M 49.171875 140.80664 C 48.86143 140.80664 48.573623 140.85057 48.306641 140.9375 C 48.045867 141.02443 47.819428 141.142 47.626953 141.29102 C 47.434478 141.44003 47.281682 141.62093 47.169922 141.83203 C 47.058162 142.03692 47.001953 142.25981 47.001953 142.50195 C 47.001953 142.83723 47.107257 143.13927 47.318359 143.40625 C 47.529461 143.67324 47.806949 143.87157 48.148438 144.00195 C 47.732442 144.13234 47.393586 144.35006 47.132812 144.6543 C 46.87204 144.95232 46.742188 145.28923 46.742188 145.66797 C 46.742187 145.93495 46.8 146.18433 46.917969 146.41406 C 47.042146 146.63758 47.210772 146.83236 47.421875 147 C 47.639186 147.16143 47.897286 147.28968 48.195312 147.38281 C 48.499548 147.47595 48.824177 147.52148 49.171875 147.52148 C 49.525781 147.52148 49.852364 147.47595 50.150391 147.38281 C 50.448417 147.28968 50.706517 147.16143 50.923828 147 C 51.141139 146.83236 51.307813 146.63758 51.425781 146.41406 C 51.549959 146.18433 51.613281 145.93495 51.613281 145.66797 C 51.613281 145.28923 51.481476 144.95232 51.220703 144.6543 C 50.95993 144.35006 50.623027 144.13234 50.207031 144.00195 C 50.54852 143.87157 50.824054 143.67324 51.035156 143.40625 C 51.246258 143.13927 51.351562 142.83723 51.351562 142.50195 C 51.351562 142.25981 51.295354 142.03692 51.183594 141.83203 C 51.071834 141.62093 50.920991 141.44003 50.728516 141.29102 C 50.53604 141.142 50.306044 141.02443 50.039062 140.9375 C 49.772081 140.85057 49.482319 140.80664 49.171875 140.80664 z M 10.634766 140.91016 L 10.634766 147.42773 L 12.236328 147.42773 L 12.236328 145.05469 L 13.457031 145.05469 L 14.685547 147.42773 L 16.474609 147.42773 L 15.048828 144.82031 C 15.415152 144.65267 15.710074 144.4088 15.933594 144.08594 C 16.157114 143.76307 16.269531 143.39611 16.269531 142.98633 C 16.269531 142.68209 16.209766 142.403 16.091797 142.14844 C 15.980037 141.89388 15.822081 141.67615 15.617188 141.49609 C 15.418503 141.30983 15.176234 141.1677 14.890625 141.06836 C 14.611225 140.96281 14.30403 140.91016 13.96875 140.91016 L 10.634766 140.91016 z M 31.337891 140.91016 L 31.337891 147.42773 L 32.939453 147.42773 L 32.939453 144.43945 L 35.556641 147.42773 L 37.679688 147.42773 L 34.494141 143.97266 L 37.511719 140.91016 L 35.576172 140.91016 L 32.939453 143.75977 L 32.939453 140.91016 L 31.337891 140.91016 z M 37.587891 140.91016 L 40.287109 144.99805 L 40.287109 147.42773 L 41.890625 147.42773 L 41.890625 144.99805 L 44.589844 140.91016 L 42.849609 140.91016 L 41.134766 143.58203 L 39.431641 140.91016 L 37.587891 140.91016 z M 49.171875 141.34766 C 49.600288 141.34766 49.958532 141.46168 50.244141 141.69141 C 50.535959 141.92113 50.681641 142.20022 50.681641 142.5293 C 50.681641 142.85837 50.535959 143.13746 50.244141 143.36719 C 49.952323 143.59071 49.594079 143.70312 49.171875 143.70312 C 48.74967 143.70312 48.39338 143.59071 48.101562 143.36719 C 47.815953 143.13746 47.673828 142.85837 47.673828 142.5293 C 47.673828 142.20022 47.815953 141.92113 48.101562 141.69141 C 48.39338 141.46168 48.74967 141.34766 49.171875 141.34766 z M 12.236328 142.2793 L 13.820312 142.2793 C 14.068668 142.2793 14.267002 142.34583 14.416016 142.48242 C 14.571238 142.61902 14.648438 142.79637 14.648438 143.01367 C 14.648437 143.23099 14.571238 143.40833 14.416016 143.54492 C 14.267002 143.68152 14.068668 143.75 13.820312 143.75 L 12.236328 143.75 L 12.236328 142.2793 z M 20.337891 142.2793 C 20.598664 142.2793 20.840934 142.32839 21.064453 142.42773 C 21.287973 142.52087 21.481147 142.65072 21.642578 142.81836 C 21.810218 142.986 21.94007 143.18789 22.033203 143.42383 C 22.126336 143.65355 22.173828 143.90294 22.173828 144.16992 C 22.173828 144.4369 22.126336 144.68789 22.033203 144.92383 C 21.94007 145.15355 21.810218 145.35189 21.642578 145.51953 C 21.481147 145.68717 21.287973 145.82058 21.064453 145.91992 C 20.840934 146.01306 20.598664 146.06055 20.337891 146.06055 C 20.077117 146.06055 19.834848 146.01306 19.611328 145.91992 C 19.387808 145.82058 19.193031 145.68717 19.025391 145.51953 C 18.86396 145.35189 18.737665 145.15355 18.644531 144.92383 C 18.551398 144.68789 18.503906 144.4369 18.503906 144.16992 C 18.503906 143.90294 18.551398 143.65355 18.644531 143.42383 C 18.737665 143.18789 18.86396 142.986 19.025391 142.81836 C 19.193031 142.65072 19.387808 142.52087 19.611328 142.42773 C 19.834848 142.32839 20.077117 142.2793 20.337891 142.2793 z M 49.171875 144.29883 C 49.668586 144.29883 50.084642 144.42707 50.419922 144.68164 C 50.761411 144.93621 50.933594 145.24857 50.933594 145.62109 C 50.933594 145.99984 50.761411 146.32126 50.419922 146.58203 C 50.084642 146.83659 49.668586 146.96289 49.171875 146.96289 C 48.675164 146.96289 48.257504 146.83659 47.916016 146.58203 C 47.580736 146.32126 47.412109 145.99984 47.412109 145.62109 C 47.412109 145.24857 47.580736 144.93621 47.916016 144.68164 C 48.257504 144.42707 48.675164 144.29883 49.171875 144.29883 z "
           d="m 20.337891,140.80664 c -0.484294,0 -0.940728,0.0879 -1.369141,0.26172 -0.428413,0.17385 -0.796978,0.41256 -1.107422,0.7168 -0.310444,0.29802 -0.55627,0.65431 -0.736328,1.07031 -0.180058,0.40979 -0.269531,0.84879 -0.269531,1.31445 0,0.46567 0.08947,0.90627 0.269531,1.32227 0.180058,0.40978 0.425884,0.76608 0.736328,1.07031 0.310444,0.29803 0.679009,0.53318 1.107422,0.70703 0.428413,0.17385 0.884847,0.26172 1.369141,0.26172 0.484292,0 0.940727,-0.0879 1.36914,-0.26172 0.428414,-0.17385 0.798931,-0.409 1.109375,-0.70703 0.310445,-0.30423 0.556271,-0.66053 0.736328,-1.07031 0.180058,-0.416 0.269532,-0.8566 0.269532,-1.32227 0,-0.46566 -0.08947,-0.90466 -0.269532,-1.31445 -0.180057,-0.416 -0.425883,-0.77229 -0.736328,-1.07031 -0.310444,-0.30424 -0.680961,-0.54295 -1.109375,-0.7168 -0.428413,-0.17385 -0.884848,-0.26172 -1.36914,-0.26172 z m 7.599609,0 c -0.490502,0 -0.94854,0.0879 -1.376953,0.26172 -0.428413,0.17385 -0.802487,0.409 -1.119141,0.70703 -0.310444,0.29803 -0.554317,0.65432 -0.734375,1.07031 -0.180057,0.40979 -0.269531,0.85234 -0.269531,1.32422 0,0.47188 0.08947,0.91248 0.269531,1.32227 0.180058,0.40978 0.423931,0.76252 0.734375,1.06054 0.310445,0.29803 0.680962,0.53514 1.109375,0.70899 0.434622,0.17385 0.896217,0.25976 1.386719,0.25976 0.521546,0 1.029029,-0.11402 1.519531,-0.34375 0.496712,-0.22972 0.896937,-0.53531 1.201172,-0.91406 l -1.052734,-1.0332 c -0.217312,0.26698 -0.463138,0.46887 -0.736328,0.60547 -0.266983,0.13659 -0.558348,0.20508 -0.875,0.20508 -0.273192,0 -0.527735,-0.0475 -0.763672,-0.14063 -0.22973,-0.0993 -0.43162,-0.23275 -0.605469,-0.40039 -0.16764,-0.16764 -0.301049,-0.36242 -0.400391,-0.58594 -0.09313,-0.22972 -0.138671,-0.47716 -0.138671,-0.74414 -10e-7,-0.26698 0.04554,-0.51637 0.138671,-0.74609 0.09934,-0.23594 0.229194,-0.43783 0.390625,-0.60547 0.16764,-0.16764 0.364371,-0.29749 0.587891,-0.39063 0.229729,-0.0993 0.473602,-0.14843 0.734375,-0.14843 0.329071,0 0.634663,0.0736 0.914062,0.22265 0.285609,0.14281 0.543709,0.35697 0.773438,0.64258 l 1.080078,-1.0625 c -0.149013,-0.19247 -0.326357,-0.36626 -0.53125,-0.52148 -0.204893,-0.16143 -0.427775,-0.29484 -0.669922,-0.40039 -0.242146,-0.11178 -0.49669,-0.1977 -0.763672,-0.25977 -0.266982,-0.0621 -0.535752,-0.0937 -0.802734,-0.0937 z m 21.234375,0 c -0.310445,0 -0.598252,0.0439 -0.865234,0.13086 -0.260774,0.0869 -0.487213,0.2045 -0.679688,0.35352 -0.192475,0.14901 -0.345271,0.32991 -0.457031,0.54101 -0.11176,0.20489 -0.167969,0.42778 -0.167969,0.66992 0,0.33528 0.105304,0.63732 0.316406,0.9043 0.211102,0.26699 0.48859,0.46532 0.830079,0.5957 -0.415996,0.13039 -0.754852,0.34811 -1.015626,0.65235 -0.260772,0.29802 -0.390624,0.63493 -0.390624,1.01367 -10e-7,0.26698 0.05781,0.51636 0.175781,0.74609 0.124177,0.22352 0.292803,0.4183 0.503906,0.58594 0.217311,0.16143 0.475411,0.28968 0.773437,0.38281 0.304236,0.0931 0.628865,0.13867 0.976563,0.13867 0.353906,0 0.680489,-0.0455 0.978516,-0.13867 0.298026,-0.0931 0.556126,-0.22138 0.773437,-0.38281 0.217311,-0.16764 0.383985,-0.36242 0.501953,-0.58594 0.124178,-0.22973 0.1875,-0.47911 0.1875,-0.74609 0,-0.37874 -0.131805,-0.71565 -0.392578,-1.01367 -0.260773,-0.30424 -0.597676,-0.52196 -1.013672,-0.65235 0.341489,-0.13038 0.617023,-0.32871 0.828125,-0.5957 0.211102,-0.26698 0.316406,-0.56902 0.316406,-0.9043 0,-0.24214 -0.05621,-0.46503 -0.167968,-0.66992 -0.11176,-0.2111 -0.262603,-0.392 -0.455078,-0.54101 -0.192476,-0.14902 -0.422472,-0.26659 -0.689454,-0.35352 -0.266981,-0.0869 -0.556743,-0.13086 -0.867187,-0.13086 z m -38.537109,0.10352 v 6.51757 h 1.601562 v -2.37304 h 1.220703 l 1.228516,2.37304 h 1.789062 l -1.425781,-2.60742 c 0.366324,-0.16764 0.661246,-0.41151 0.884766,-0.73437 0.22352,-0.32287 0.335937,-0.68983 0.335937,-1.09961 0,-0.30424 -0.05977,-0.58333 -0.177734,-0.83789 -0.11176,-0.25456 -0.269716,-0.47229 -0.474609,-0.65235 -0.198685,-0.18626 -0.440954,-0.32839 -0.726563,-0.42773 -0.2794,-0.10555 -0.586595,-0.1582 -0.921875,-0.1582 z m 20.703125,0 v 6.51757 h 1.601562 v -2.98828 l 2.617188,2.98828 h 2.123047 l -3.185547,-3.45507 3.017578,-3.0625 h -1.935547 l -2.636719,2.84961 v -2.84961 z m 6.25,0 2.699218,4.08789 v 2.42968 h 1.603516 v -2.42968 l 2.699219,-4.08789 h -1.740235 l -1.714843,2.67187 -1.703125,-2.67187 z m 11.583984,0.4375 c 0.428413,0 0.786657,0.11402 1.072266,0.34375 0.291818,0.22972 0.4375,0.50881 0.4375,0.83789 0,0.32907 -0.145682,0.60816 -0.4375,0.83789 -0.291818,0.22352 -0.650062,0.33593 -1.072266,0.33593 -0.422205,0 -0.778495,-0.11241 -1.070313,-0.33593 -0.285609,-0.22973 -0.427734,-0.50882 -0.427734,-0.83789 0,-0.32908 0.142125,-0.60817 0.427734,-0.83789 0.291818,-0.22973 0.648108,-0.34375 1.070313,-0.34375 z m -36.935547,0.93164 h 1.583984 c 0.248356,0 0.44669,0.0665 0.595704,0.20312 0.155222,0.1366 0.232422,0.31395 0.232422,0.53125 -1e-6,0.21732 -0.0772,0.39466 -0.232422,0.53125 -0.149014,0.1366 -0.347348,0.20508 -0.595704,0.20508 h -1.583984 z m 8.101563,0 c 0.260773,0 0.503043,0.0491 0.726562,0.14843 0.22352,0.0931 0.416694,0.22299 0.578125,0.39063 0.16764,0.16764 0.297492,0.36953 0.390625,0.60547 0.09313,0.22972 0.140625,0.47911 0.140625,0.74609 0,0.26698 -0.04749,0.51797 -0.140625,0.75391 -0.09313,0.22972 -0.222985,0.42806 -0.390625,0.5957 -0.161431,0.16764 -0.354605,0.30105 -0.578125,0.40039 -0.223519,0.0931 -0.465789,0.14063 -0.726562,0.14063 -0.260774,0 -0.503043,-0.0475 -0.726563,-0.14063 -0.22352,-0.0993 -0.418297,-0.23275 -0.585937,-0.40039 -0.161431,-0.16764 -0.287726,-0.36598 -0.38086,-0.5957 -0.09313,-0.23594 -0.140625,-0.48693 -0.140625,-0.75391 0,-0.26698 0.04749,-0.51637 0.140625,-0.74609 0.09313,-0.23594 0.219429,-0.43783 0.38086,-0.60547 0.16764,-0.16764 0.362417,-0.29749 0.585937,-0.39063 0.22352,-0.0993 0.465789,-0.14843 0.726563,-0.14843 z m 28.833984,2.01953 c 0.496711,0 0.912767,0.12824 1.248047,0.38281 0.341489,0.25457 0.513672,0.56693 0.513672,0.93945 0,0.37875 -0.172183,0.70017 -0.513672,0.96094 -0.33528,0.25456 -0.751336,0.38086 -1.248047,0.38086 -0.496711,0 -0.914371,-0.1263 -1.255859,-0.38086 -0.33528,-0.26077 -0.503907,-0.58219 -0.503907,-0.96094 0,-0.37252 0.168627,-0.68488 0.503907,-0.93945 0.341488,-0.25457 0.759148,-0.38281 1.255859,-0.38281 z" />
      </g>
      <g
         id="text49490"
         style="font-size:11.6417px;font-family:sans-serif;fill:#000000;fill-opacity:1;stroke-width:0.263481" />
    </g>
  </g>
</svg>
