<?xml version="1.0" encoding="UTF-8" standalone="no"?>
<svg
   version="1.1"
   width="907.78003"
   height="415.07999"
   id="svg2855"
   sodipodi:docname="fedora_logo.svg"
   inkscape:version="1.1 (c68e22c387, 2021-05-23)"
   xmlns:inkscape="http://www.inkscape.org/namespaces/inkscape"
   xmlns:sodipodi="http://sodipodi.sourceforge.net/DTD/sodipodi-0.dtd"
   xmlns="http://www.w3.org/2000/svg"
   xmlns:svg="http://www.w3.org/2000/svg"
   xmlns:rdf="http://www.w3.org/1999/02/22-rdf-syntax-ns#"
   xmlns:cc="http://creativecommons.org/ns#"
   xmlns:dc="http://purl.org/dc/elements/1.1/">
  <metadata
     id="metadata20">
    <rdf:RDF>
      <cc:Work
         rdf:about="">
        <dc:format>image/svg+xml</dc:format>
        <dc:type
           rdf:resource="http://purl.org/dc/dcmitype/StillImage" />
      </cc:Work>
    </rdf:RDF>
  </metadata>
  <sodipodi:namedview
     pagecolor="#ffffff"
     bordercolor="#666666"
     borderopacity="1"
     objecttolerance="10"
     gridtolerance="10"
     guidetolerance="10"
     inkscape:pageopacity="0"
     inkscape:pageshadow="2"
     inkscape:window-width="1920"
     inkscape:window-height="1020"
     id="namedview18"
     showgrid="false"
     inkscape:zoom="0.90509668"
     inkscape:cx="452.43785"
     inkscape:cy="225.39029"
     inkscape:window-x="0"
     inkscape:window-y="0"
     inkscape:window-maximized="1"
     inkscape:current-layer="svg2855"
     inkscape:pagecheckerboard="0"
     showguides="true"
     inkscape:guide-bbox="true" />
  <defs
     id="defs2857">
    <rect
       x="322.7081"
       y="109.49711"
       width="673.17567"
       height="163.76066"
       id="rect23901" />
    <rect
       x="319.14754"
       y="115.26738"
       width="568.74967"
       height="206.15028"
       id="rect8253" />
  </defs>
  <text
     xml:space="preserve"
     id="text8251"
     style="font-style:normal;font-variant:normal;font-weight:normal;font-stretch:normal;font-size:40px;line-height:1.25;font-family:'Rocky Display';-inkscape-font-specification:'Rocky Display';white-space:pre;shape-inside:url(#rect8253);fill:#000000;fill-opacity:1;stroke:none" />
  <g
     aria-label="ROCKY "
     transform="translate(17.11998,27.724549)"
     id="text23899"
     style="font-weight:900;font-size:128px;line-height:1.25;font-family:'Rocky Display';-inkscape-font-specification:'Rocky Display Heavy';white-space:pre;shape-inside:url(#rect23901);fill:#ffffff">
    <path
       id="path6497"
       sodipodi:type="inkscape:offset"
       inkscape:radius="0"
       inkscape:original="M 170.16797 68.111328 C 108.8937 68.111328 59.220703 117.78435 59.220703 179.05859 C 59.220703 209.37716 71.382975 236.85614 91.09375 256.88086 L 203.63477 144.33789 L 231.41992 172.12305 L 274.94141 215.64453 C 278.94129 204.18925 281.11523 191.87875 281.11523 179.05859 C 281.11523 117.78435 231.44186 68.111328 170.16797 68.111328 z M 463.50977 132.98047 C 456.85377 132.98047 450.58136 134.17512 444.69336 136.56445 C 438.80536 138.95379 433.7276 142.24054 429.46094 146.42188 C 425.19427 150.51787 421.82428 155.42329 419.34961 161.14062 C 416.87494 166.77262 415.63672 172.78945 415.63672 179.18945 C 415.63672 185.58945 416.87494 191.6479 419.34961 197.36523 C 421.82428 202.99723 425.19427 207.9046 429.46094 212.08594 C 433.7276 216.18194 438.80536 219.42317 444.69336 221.8125 C 450.58136 224.20183 456.85377 225.39648 463.50977 225.39648 C 470.16577 225.39648 476.43622 224.20183 482.32422 221.8125 C 488.21222 219.42317 493.28997 216.18194 497.55664 212.08594 C 501.82331 207.9046 505.1933 202.99723 507.66797 197.36523 C 510.14264 191.6479 511.38086 185.58945 511.38086 179.18945 C 511.38086 172.78945 510.14264 166.77263 507.66797 161.14062 C 505.1933 155.42329 501.82331 150.51788 497.55664 146.42188 C 493.28997 142.24054 488.21222 138.95379 482.32422 136.56445 C 476.43622 134.17512 470.16577 132.98047 463.50977 132.98047 z M 567.95703 132.98047 C 561.2157 132.98047 554.90167 134.17512 549.01367 136.56445 C 543.12567 138.95379 538.00434 142.19697 533.65234 146.29297 C 529.38568 150.38897 526.01568 155.29634 523.54102 161.01367 C 521.06635 166.64567 519.82812 172.70412 519.82812 179.18945 C 519.82812 185.67479 521.06635 191.73323 523.54102 197.36523 C 526.01568 202.99723 529.38568 207.86103 533.65234 211.95703 C 537.91901 216.05303 542.99677 219.29621 548.88477 221.68555 C 554.8581 224.07488 561.2157 225.26953 567.95703 225.26953 C 575.12503 225.26953 582.07898 223.69054 588.82031 220.5332 C 595.64698 217.37587 601.1507 213.19557 605.33203 207.99023 L 590.86914 193.78125 C 587.88247 197.45058 584.51053 200.22423 580.75586 202.10156 C 577.08653 203.9789 573.07661 204.91797 568.72461 204.91797 C 564.96994 204.91797 561.47118 204.27805 558.22852 202.99805 C 555.07118 201.63271 552.29754 199.79814 549.9082 197.49414 C 547.6042 195.19014 545.76963 192.50169 544.4043 189.42969 C 543.1243 186.27235 542.48438 182.85879 542.48438 179.18945 C 542.48437 175.52012 543.1243 172.10655 544.4043 168.94922 C 545.76963 165.70655 547.56258 162.93291 549.78125 160.62891 C 552.08525 158.32491 554.7737 156.53391 557.8457 155.25391 C 561.00304 153.88857 564.37303 153.20508 567.95703 153.20508 C 572.4797 153.20508 576.66 154.22934 580.5 156.27734 C 584.42533 158.24001 587.96767 161.18404 591.125 165.10938 L 605.97266 150.51758 C 603.92466 147.87224 601.49178 145.48294 598.67578 143.34961 C 595.85978 141.13094 592.78894 139.29637 589.46094 137.8457 C 586.13294 136.3097 582.63418 135.11505 578.96484 134.26172 C 575.29551 133.40839 571.62636 132.98047 567.95703 132.98047 z M 330.13281 134.38867 L 330.13281 223.99023 L 352.14844 223.99023 L 352.14844 191.34961 L 368.91602 191.34961 L 385.8125 223.99023 L 410.38867 223.99023 L 390.80469 188.14844 C 395.83935 185.84444 399.89284 182.47444 402.96484 178.03711 C 406.03684 173.59978 407.57227 168.56559 407.57227 162.93359 C 407.57227 158.75226 406.76196 154.91273 405.14062 151.41406 C 403.60463 147.9154 401.42928 144.92779 398.61328 142.45312 C 395.88261 139.89313 392.55424 137.92979 388.62891 136.56445 C 384.78891 135.11379 380.56503 134.38867 375.95703 134.38867 L 330.13281 134.38867 z M 614.67578 134.38867 L 614.67578 223.99023 L 636.69336 223.99023 L 636.69336 182.90039 L 672.66016 223.99023 L 701.84375 223.99023 L 658.06836 176.50195 L 699.54102 134.38867 L 672.91602 134.38867 L 636.69336 173.55664 L 636.69336 134.38867 L 614.67578 134.38867 z M 700.56445 134.38867 L 737.68359 190.58203 L 737.68359 223.99023 L 759.70117 223.99023 L 759.70117 190.58203 L 796.82031 134.38867 L 772.88477 134.38867 L 749.33203 171.125 L 725.9082 134.38867 L 700.56445 134.38867 z M 352.14844 153.20508 L 373.9082 153.20508 C 377.32154 153.20508 380.05356 154.14415 382.10156 156.02148 C 384.2349 157.89882 385.30078 160.32974 385.30078 163.31641 C 385.30078 166.30307 384.2349 168.73595 382.10156 170.61328 C 380.05356 172.49061 377.32154 173.42969 373.9082 173.42969 L 352.14844 173.42969 L 352.14844 153.20508 z M 463.50977 153.20508 C 467.09377 153.20508 470.42019 153.88857 473.49219 155.25391 C 476.56419 156.53391 479.21102 158.32491 481.42969 160.62891 C 483.73369 162.93291 485.52469 165.70655 486.80469 168.94922 C 488.08469 172.10655 488.72461 175.52012 488.72461 179.18945 C 488.72461 182.85879 488.08469 186.31397 486.80469 189.55664 C 485.52469 192.71397 483.73369 195.446 481.42969 197.75 C 479.21102 200.054 476.56419 201.88857 473.49219 203.25391 C 470.42019 204.53391 467.09377 205.17383 463.50977 205.17383 C 459.92577 205.17383 456.59739 204.53391 453.52539 203.25391 C 450.45339 201.88857 447.76494 200.054 445.46094 197.75 C 443.24227 195.446 441.49289 192.71397 440.21289 189.55664 C 438.93289 186.31397 438.29297 182.85879 438.29297 179.18945 C 438.29297 175.52012 438.93289 172.10655 440.21289 168.94922 C 441.49289 165.70655 443.24227 162.93291 445.46094 160.62891 C 447.76494 158.32491 450.45339 156.53391 453.52539 155.25391 C 456.59739 153.88857 459.92577 153.20508 463.50977 153.20508 z M 203.63477 199.9082 L 123.70703 279.83789 C 137.84016 286.36407 153.57851 290.00391 170.16797 290.00391 C 204.01603 290.00391 234.32435 274.84594 254.67383 250.94727 L 203.63477 199.9082 z "
       d="m 170.16797,68.111328 c -61.27427,0 -110.947267,49.673022 -110.947267,110.947262 0,30.31857 12.162272,57.79755 31.873047,77.82227 l 112.54102,-112.54297 27.78515,27.78516 43.52149,43.52148 c 3.99988,-11.45528 6.17382,-23.76578 6.17382,-36.58594 0,-61.27424 -49.67337,-110.947262 -110.94726,-110.947262 z m 293.3418,64.869142 c -6.656,0 -12.92841,1.19465 -18.81641,3.58398 -5.888,2.38934 -10.96576,5.67609 -15.23242,9.85743 -4.26667,4.09599 -7.63666,9.00141 -10.11133,14.71874 -2.47467,5.632 -3.71289,11.64883 -3.71289,18.04883 0,6.4 1.23822,12.45845 3.71289,18.17578 2.47467,5.632 5.84466,10.53937 10.11133,14.72071 4.26666,4.096 9.34442,7.33723 15.23242,9.72656 5.888,2.38933 12.16041,3.58398 18.81641,3.58398 6.656,0 12.92645,-1.19465 18.81445,-3.58398 5.888,-2.38933 10.96575,-5.63056 15.23242,-9.72656 4.26667,-4.18134 7.63666,-9.08871 10.11133,-14.72071 2.47467,-5.71733 3.71289,-11.77578 3.71289,-18.17578 0,-6.4 -1.23822,-12.41682 -3.71289,-18.04883 -2.47467,-5.71733 -5.84466,-10.62274 -10.11133,-14.71874 -4.26667,-4.18134 -9.34442,-7.46809 -15.23242,-9.85743 -5.888,-2.38933 -12.15845,-3.58398 -18.81445,-3.58398 z m 104.44726,0 c -6.74133,0 -13.05536,1.19465 -18.94336,3.58398 -5.888,2.38934 -11.00933,5.63252 -15.36133,9.72852 -4.26666,4.096 -7.63666,9.00337 -10.11132,14.7207 -2.47467,5.632 -3.7129,11.69045 -3.7129,18.17578 0,6.48534 1.23823,12.54378 3.7129,18.17578 2.47466,5.632 5.84466,10.4958 10.11132,14.5918 4.26667,4.096 9.34443,7.33918 15.23243,9.72852 5.97333,2.38933 12.33093,3.58398 19.07226,3.58398 7.168,0 14.12195,-1.57899 20.86328,-4.73633 6.82667,-3.15733 12.33039,-7.33763 16.51172,-12.54297 l -14.46289,-14.20898 c -2.98667,3.66933 -6.35861,6.44298 -10.11328,8.32031 -3.66933,1.87734 -7.67925,2.81641 -12.03125,2.81641 -3.75467,0 -7.25343,-0.63992 -10.49609,-1.91992 -3.15734,-1.36534 -5.93098,-3.19991 -8.32032,-5.50391 -2.304,-2.304 -4.13857,-4.99245 -5.5039,-8.06445 -1.28,-3.15734 -1.91992,-6.5709 -1.91992,-10.24024 -10e-6,-3.66933 0.63992,-7.0829 1.91992,-10.24023 1.36533,-3.24267 3.15828,-6.01631 5.37695,-8.32031 2.304,-2.304 4.99245,-4.095 8.06445,-5.375 3.15734,-1.36534 6.52733,-2.04883 10.11133,-2.04883 4.52267,0 8.70297,1.02426 12.54297,3.07226 3.92533,1.96267 7.46767,4.9067 10.625,8.83204 l 14.84766,-14.5918 c -2.048,-2.64534 -4.48088,-5.03464 -7.29688,-7.16797 -2.816,-2.21867 -5.88684,-4.05324 -9.21484,-5.50391 -3.328,-1.536 -6.82676,-2.73065 -10.4961,-3.58398 -3.66933,-0.85333 -7.33848,-1.28125 -11.00781,-1.28125 z m -237.82422,1.4082 v 89.60156 h 22.01563 v -32.64062 h 16.76758 l 16.89648,32.64062 h 24.57617 l -19.58398,-35.84179 c 5.03466,-2.304 9.08815,-5.674 12.16015,-10.11133 3.072,-4.43733 4.60743,-9.47152 4.60743,-15.10352 0,-4.18133 -0.81031,-8.02086 -2.43165,-11.51953 -1.53599,-3.49866 -3.71134,-6.48627 -6.52734,-8.96094 -2.73067,-2.55999 -6.05904,-4.52333 -9.98437,-5.88867 -3.84,-1.45066 -8.06388,-2.17578 -12.67188,-2.17578 z m 284.54297,0 v 89.60156 h 22.01758 v -41.08984 l 35.9668,41.08984 h 29.18359 l -43.77539,-47.48828 41.47266,-42.11328 h -26.625 l -36.22266,39.16797 v -39.16797 z m 85.88867,0 37.11914,56.19336 v 33.4082 h 22.01758 v -33.4082 l 37.11914,-56.19336 H 772.88477 L 749.33203,171.125 725.9082,134.38867 Z m -348.41601,18.81641 h 21.75976 c 3.41334,0 6.14536,0.93907 8.19336,2.8164 2.13334,1.87734 3.19922,4.30826 3.19922,7.29493 0,2.98666 -1.06588,5.41954 -3.19922,7.29687 -2.048,1.87733 -4.78002,2.81641 -8.19336,2.81641 h -21.75976 z m 111.36133,0 c 3.584,0 6.91042,0.68349 9.98242,2.04883 3.072,1.28 5.71883,3.071 7.9375,5.375 2.304,2.304 4.095,5.07764 5.375,8.32031 1.28,3.15733 1.91992,6.5709 1.91992,10.24023 0,3.66934 -0.63992,7.12452 -1.91992,10.36719 -1.28,3.15733 -3.071,5.88936 -5.375,8.19336 -2.21867,2.304 -4.8655,4.13857 -7.9375,5.50391 -3.072,1.28 -6.39842,1.91992 -9.98242,1.91992 -3.584,0 -6.91238,-0.63992 -9.98438,-1.91992 -3.072,-1.36534 -5.76045,-3.19991 -8.06445,-5.50391 -2.21867,-2.304 -3.96805,-5.03603 -5.24805,-8.19336 -1.28,-3.24267 -1.91992,-6.69785 -1.91992,-10.36719 0,-3.66933 0.63992,-7.0829 1.91992,-10.24023 1.28,-3.24267 3.02938,-6.01631 5.24805,-8.32031 2.304,-2.304 4.99245,-4.095 8.06445,-5.375 3.072,-1.36534 6.40038,-2.04883 9.98438,-2.04883 z m -259.875,46.70312 -79.92774,79.92969 c 14.13313,6.52618 29.87148,10.16602 46.46094,10.16602 33.84806,0 64.15638,-15.15797 84.50586,-39.05664 z"
       style="fill:#ffffff" />
  </g>
</svg>
