<svg width="158" height="72" viewBox="0 0 158 72" fill="none" xmlns="http://www.w3.org/2000/svg">
<path d="M1 44.736V27.936H9.208C10.056 27.936 10.832 28.064 11.536 28.32C12.256 28.576 12.872 28.936 13.384 29.4C13.896 29.848 14.296 30.392 14.584 31.032C14.872 31.672 15.016 32.376 15.016 33.144C15.016 34.2 14.712 35.144 14.104 35.976C13.512 36.808 12.72 37.424 11.728 37.824L15.448 44.736H11.56L8.272 38.304H4.48V44.736H1ZM8.896 30.936H4.48V35.448H8.896C9.68 35.448 10.304 35.24 10.768 34.824C11.248 34.408 11.488 33.864 11.488 33.192C11.488 32.52 11.248 31.976 10.768 31.56C10.304 31.144 9.68 30.936 8.896 30.936Z" fill="black"/>
<path d="M15.7705 38.496C15.7705 37.584 15.9385 36.736 16.2745 35.952C16.6265 35.152 17.0985 34.464 17.6905 33.888C18.2985 33.296 19.0105 32.832 19.8265 32.496C20.6425 32.16 21.5145 31.992 22.4425 31.992C23.3705 31.992 24.2425 32.16 25.0585 32.496C25.8745 32.832 26.5785 33.296 27.1705 33.888C27.7785 34.464 28.2505 35.152 28.5865 35.952C28.9385 36.736 29.1145 37.584 29.1145 38.496C29.1145 39.408 28.9385 40.264 28.5865 41.064C28.2505 41.848 27.7785 42.528 27.1705 43.104C26.5785 43.68 25.8745 44.136 25.0585 44.472C24.2425 44.808 23.3705 44.976 22.4425 44.976C21.5145 44.976 20.6425 44.808 19.8265 44.472C19.0105 44.136 18.2985 43.68 17.6905 43.104C17.0985 42.528 16.6265 41.848 16.2745 41.064C15.9385 40.264 15.7705 39.408 15.7705 38.496ZM22.4425 42.12C23.4025 42.12 24.2185 41.768 24.8905 41.064C25.5625 40.36 25.8985 39.504 25.8985 38.496C25.8985 37.472 25.5625 36.608 24.8905 35.904C24.2185 35.2 23.4025 34.848 22.4425 34.848C21.4825 34.848 20.6665 35.2 19.9945 35.904C19.3225 36.608 18.9865 37.472 18.9865 38.496C18.9865 39.504 19.3225 40.36 19.9945 41.064C20.6665 41.768 21.4825 42.12 22.4425 42.12Z" fill="black"/>
<path d="M37.3493 42.096C37.9093 42.096 38.4293 41.984 38.9093 41.76C39.4053 41.536 39.8773 41.184 40.3253 40.704L42.2933 42.744C41.6533 43.448 40.8853 44 39.9893 44.4C39.0933 44.784 38.1653 44.976 37.2053 44.976C36.2933 44.976 35.4293 44.808 34.6133 44.472C33.8133 44.136 33.1173 43.68 32.5253 43.104C31.9493 42.528 31.4933 41.848 31.1573 41.064C30.8213 40.264 30.6533 39.408 30.6533 38.496C30.6533 37.584 30.8213 36.736 31.1573 35.952C31.4933 35.152 31.9493 34.464 32.5253 33.888C33.1173 33.296 33.8133 32.832 34.6133 32.496C35.4293 32.16 36.2933 31.992 37.2053 31.992C38.1973 31.992 39.1493 32.192 40.0613 32.592C40.9733 32.976 41.7493 33.52 42.3893 34.224L40.3733 36.36C39.9253 35.864 39.4453 35.488 38.9333 35.232C38.4213 34.976 37.8693 34.848 37.2773 34.848C36.3333 34.848 35.5333 35.2 34.8773 35.904C34.2373 36.608 33.9173 37.472 33.9173 38.496C33.9173 39.52 34.2453 40.376 34.9013 41.064C35.5733 41.752 36.3893 42.096 37.3493 42.096Z" fill="black"/>
<path d="M44.0028 44.736V27.936L47.2907 27.216V37.512L52.6908 32.232H56.4108L50.5548 37.968L56.7708 44.736H52.5708L47.2907 39.024V44.736H44.0028Z" fill="black"/>
<path d="M61.2617 45.312L61.4538 44.856L56.5817 32.232H60.2057L63.3018 40.752L66.8538 32.232H70.4058L64.6458 45.72C64.0058 47.224 63.2617 48.296 62.4137 48.936C61.5657 49.576 60.4617 49.896 59.1017 49.896C58.8137 49.896 58.5337 49.88 58.2617 49.848C58.0057 49.832 57.7977 49.8 57.6377 49.752V46.92C57.7977 46.952 57.9658 46.976 58.1418 46.992C58.3178 47.008 58.5337 47.016 58.7897 47.016C59.3817 47.016 59.8778 46.872 60.2778 46.584C60.6938 46.296 61.0217 45.872 61.2617 45.312Z" fill="black"/>
<path d="M77.0781 44.736V27.936H80.5581V41.664H89.7501V44.736H77.0781Z" fill="black"/>
<path d="M93.5644 30.744C93.0524 30.744 92.6124 30.56 92.2444 30.192C91.8764 29.824 91.6924 29.384 91.6924 28.872C91.6924 28.36 91.8764 27.92 92.2444 27.552C92.6124 27.184 93.0524 27 93.5644 27C94.0764 27 94.5164 27.184 94.8844 27.552C95.2524 27.92 95.4364 28.36 95.4364 28.872C95.4364 29.384 95.2524 29.824 94.8844 30.192C94.5164 30.56 94.0764 30.744 93.5644 30.744ZM95.2204 32.232V44.736H91.9324V32.232H95.2204Z" fill="black"/>
<path d="M97.7918 44.736V32.232H101.08V33.216C101.56 32.816 102.088 32.512 102.664 32.304C103.256 32.096 103.896 31.992 104.584 31.992C106.024 31.992 107.208 32.456 108.136 33.384C109.064 34.312 109.528 35.504 109.528 36.96V44.736H106.24V37.44C106.24 36.656 106 36.024 105.52 35.544C105.056 35.064 104.432 34.824 103.648 34.824C103.104 34.824 102.608 34.936 102.16 35.16C101.728 35.368 101.368 35.672 101.08 36.072V44.736H97.7918Z" fill="black"/>
<path d="M115.093 32.232V39.504C115.093 40.304 115.325 40.944 115.789 41.424C116.269 41.904 116.901 42.144 117.685 42.144C118.245 42.144 118.741 42.04 119.173 41.832C119.621 41.608 119.989 41.296 120.277 40.896V32.232H123.565V44.736H120.277V43.728C119.797 44.128 119.261 44.44 118.669 44.664C118.077 44.872 117.437 44.976 116.749 44.976C115.309 44.976 114.125 44.512 113.197 43.584C112.269 42.64 111.805 41.44 111.805 39.984V32.232H115.093Z" fill="black"/>
<path d="M124.784 44.736L129.584 38.376L124.904 32.232H128.72L131.48 35.952L134.216 32.232H137.912L133.304 38.328L138.2 44.736H134.36L131.408 40.752L128.456 44.736H124.784Z" fill="black"/>
<path d="M150.669 44.976C149.773 44.976 148.932 44.856 148.148 44.616C147.38 44.376 146.716 44.048 146.156 43.632C145.612 43.2 145.181 42.696 144.861 42.12C144.557 41.528 144.404 40.888 144.404 40.2C144.404 39.224 144.741 38.352 145.413 37.584C146.085 36.8 146.957 36.24 148.029 35.904C147.149 35.568 146.437 35.056 145.893 34.368C145.349 33.68 145.077 32.904 145.077 32.04C145.077 31.416 145.22 30.84 145.508 30.312C145.796 29.768 146.188 29.304 146.684 28.92C147.18 28.536 147.764 28.232 148.436 28.008C149.124 27.784 149.869 27.672 150.669 27.672C151.469 27.672 152.212 27.784 152.9 28.008C153.588 28.232 154.18 28.536 154.676 28.92C155.172 29.304 155.564 29.768 155.852 30.312C156.14 30.84 156.285 31.416 156.285 32.04C156.285 32.904 156.013 33.68 155.469 34.368C154.925 35.056 154.213 35.568 153.333 35.904C154.405 36.24 155.277 36.8 155.949 37.584C156.621 38.352 156.956 39.224 156.956 40.2C156.956 40.888 156.797 41.528 156.477 42.12C156.173 42.696 155.74 43.2 155.18 43.632C154.62 44.048 153.957 44.376 153.189 44.616C152.421 44.856 151.581 44.976 150.669 44.976ZM150.669 35.136C151.757 35.136 152.676 34.848 153.428 34.272C154.18 33.68 154.557 32.96 154.557 32.112C154.557 31.264 154.18 30.544 153.428 29.952C152.692 29.36 151.773 29.064 150.669 29.064C149.581 29.064 148.66 29.36 147.908 29.952C147.172 30.544 146.805 31.264 146.805 32.112C146.805 32.96 147.172 33.68 147.908 34.272C148.66 34.848 149.581 35.136 150.669 35.136ZM150.669 43.536C151.949 43.536 153.021 43.208 153.885 42.552C154.765 41.88 155.204 41.056 155.204 40.08C155.204 39.12 154.765 38.312 153.885 37.656C153.021 37 151.949 36.672 150.669 36.672C149.389 36.672 148.308 37 147.428 37.656C146.564 38.312 146.133 39.12 146.133 40.08C146.133 41.056 146.564 41.88 147.428 42.552C148.308 43.208 149.389 43.536 150.669 43.536Z" fill="black"/>
</svg>
