<?xml version="1.0" encoding="UTF-8" standalone="no"?>
<!-- Generator: Adobe Illustrator 21.1.0, SVG Export Plug-In . SVG Version: 6.00 Build 0)  -->

<svg
   xmlns:dc="http://purl.org/dc/elements/1.1/"
   xmlns:cc="http://creativecommons.org/ns#"
   xmlns:rdf="http://www.w3.org/1999/02/22-rdf-syntax-ns#"
   xmlns:svg="http://www.w3.org/2000/svg"
   xmlns="http://www.w3.org/2000/svg"
   xmlns:sodipodi="http://sodipodi.sourceforge.net/DTD/sodipodi-0.dtd"
   xmlns:inkscape="http://www.inkscape.org/namespaces/inkscape"
   version="1.1"
   id="logo"
   x="0px"
   y="0px"
   viewBox="0 0 158 72"
   xml:space="preserve"
   sodipodi:docname="fedora_logo.svg"
   width="158"
   height="72"
   inkscape:export-filename="/srv/sources/rhpkgs/redhat-logos/redhat-logos-79.0.0/newlogos/svg/fedora_logo.svg.png"
   inkscape:export-xdpi="96"
   inkscape:export-ydpi="96"
   inkscape:version="0.92.4 (unknown)"><metadata
     id="metadata5831"><rdf:RDF><cc:Work
         rdf:about=""><dc:format>image/svg+xml</dc:format><dc:type
           rdf:resource="http://purl.org/dc/dcmitype/StillImage" /><dc:title></dc:title></cc:Work></rdf:RDF></metadata><defs
     id="defs5829" /><sodipodi:namedview
     pagecolor="#ffffff"
     bordercolor="#666666"
     borderopacity="1"
     objecttolerance="10"
     gridtolerance="10"
     guidetolerance="10"
     inkscape:pageopacity="0"
     inkscape:pageshadow="2"
     inkscape:window-width="1276"
     inkscape:window-height="577"
     id="namedview5827"
     showgrid="false"
     inkscape:zoom="1"
     inkscape:cx="-19.75799"
     inkscape:cy="61"
     inkscape:window-x="329"
     inkscape:window-y="238"
     inkscape:window-maximized="0"
     inkscape:current-layer="logo"
     units="mm"
     fit-margin-top="0"
     fit-margin-left="0"
     fit-margin-right="0"
     fit-margin-bottom="0"
     showguides="true"
     inkscape:guide-bbox="true"
     inkscape:showpageshadow="false"
     borderlayer="true"><sodipodi:guide
       position="192,24"
       orientation="0,1"
       id="guide14"
       inkscape:locked="false"
       inkscape:label=""
       inkscape:color="rgb(0,0,255)" /><sodipodi:guide
       position="237,48"
       orientation="0,1"
       id="guide24"
       inkscape:locked="false"
       inkscape:label=""
       inkscape:color="rgb(0,0,255)" /><sodipodi:guide
       position="168,72"
       orientation="0,1"
       id="guide26"
       inkscape:locked="false"
       inkscape:label=""
       inkscape:color="rgb(0,0,255)" /><sodipodi:guide
       position="158,-5"
       orientation="1,0"
       id="guide28"
       inkscape:locked="false"
       inkscape:label=""
       inkscape:color="rgb(0,0,255)" /></sodipodi:namedview><g
     aria-label="CENTOS 8"
     style="font-style:normal;font-variant:normal;font-weight:normal;font-stretch:normal;font-size:33.14916992px;line-height:1.25;font-family:Overpass;-inkscape-font-specification:'Overpass, Normal';font-variant-ligatures:normal;font-variant-caps:normal;font-variant-numeric:normal;font-feature-settings:normal;text-align:start;letter-spacing:0px;word-spacing:0px;writing-mode:lr-tb;text-anchor:start;fill:#000000;fill-opacity:1;stroke:none;stroke-width:3.73267841"
     id="text18"><path
       d="m 10.779005,47.933703 c 4.276243,0 6.895027,-2.519337 8.552486,-6.099448 l -4.607735,-1.723756 c -1.060773,1.756906 -2.254143,2.983425 -3.944751,2.983425 -3.1823202,0 -4.5414361,-3.812155 -4.5414361,-7.093922 0,-3.182321 1.0939226,-7.093923 4.5414361,-7.093923 1.823204,0 2.850829,0.994475 4.01105,2.751381 l 4.508287,-2.022099 C 18.17127,26.817681 15.254143,24.0663 10.779005,24.0663 3.5524861,24.0663 1,30.729284 1,36.000002 c 0,5.734806 2.4861878,11.933701 9.779005,11.933701 z"
       style="font-style:normal;font-variant:normal;font-weight:900;font-stretch:normal;font-family:Overpass;-inkscape-font-specification:'Overpass Heavy';stroke-width:3.73267841"
       id="path30" /><path
       d="m 22.870683,47.602211 h 17.337016 v -4.80663 H 27.909357 v -4.77348 h 6.497237 V 33.24862 H 27.909357 V 29.171273 H 39.544716 V 24.397792 H 22.870683 Z"
       style="font-style:normal;font-variant:normal;font-weight:900;font-stretch:normal;font-family:Overpass;-inkscape-font-specification:'Overpass Heavy';stroke-width:3.73267841"
       id="path32" /><path
       d="M 63.005004,47.602211 V 24.397792 H 57.96633 v 12.132596 c 0,0.364641 0.03315,1.292818 0.09945,1.756906 -0.198895,-0.497237 -0.729282,-1.392265 -0.961326,-1.723757 L 48.585115,24.397792 H 43.97738 v 23.204419 h 4.972376 V 35.303869 c 0,-0.430939 0,-1.19337 -0.09945,-1.756906 0.265194,0.530387 0.762431,1.458563 0.994475,1.756906 l 8.751381,12.298342 z"
       style="font-style:normal;font-variant:normal;font-weight:900;font-stretch:normal;font-family:Overpass;-inkscape-font-specification:'Overpass Heavy';stroke-width:3.73267841"
       id="path34" /><path
       d="m 78.142784,29.237571 h 6.662983 v -4.839779 h -18.36464 v 4.839779 h 6.662983 v 18.36464 h 5.038674 z"
       style="font-style:normal;font-variant:normal;font-weight:900;font-stretch:normal;font-family:Overpass;-inkscape-font-specification:'Overpass Heavy';stroke-width:3.73267841"
       id="path36" /><path
       d="m 97.160565,48.000001 c 7.491715,0 10.276245,-6.265193 10.276245,-11.999999 0,-5.734807 -2.78453,-12 -10.276245,-12 -7.524861,0 -10.309392,6.265193 -10.309392,12 0,5.734806 2.784531,11.999999 10.309392,11.999999 z m 0,-4.872928 c -3.812154,0 -5.071823,-3.911602 -5.071823,-7.127071 0,-3.116022 1.22652,-7.160221 5.071823,-7.160221 3.812155,0 5.038675,3.878453 5.038675,7.160221 0,3.082872 -1.35912,7.127071 -5.038675,7.127071 z"
       style="font-style:normal;font-variant:normal;font-weight:900;font-stretch:normal;font-family:Overpass;-inkscape-font-specification:'Overpass Heavy';stroke-width:3.73267841"
       id="path38" /><path
       d="m 119.55956,48.000001 c 4.83978,0 8.65193,-2.618784 8.65193,-7.127071 0,-5.138122 -4.54143,-6.596685 -8.05524,-7.723757 -2.1547,-0.729282 -3.94475,-1.292818 -3.94475,-2.486188 0,-1.226519 0.99447,-1.889503 2.81767,-1.889503 2.0884,0 3.18233,1.060774 3.81216,2.486188 l 4.50829,-1.458563 c -0.89503,-3.281768 -3.77901,-5.801105 -8.05525,-5.801105 -5.17127,0 -8.12155,2.983425 -8.12155,6.563536 0,4.839778 4.1105,6.132596 7.59116,7.259668 2.41989,0.762431 4.40884,1.392265 4.40884,3.016574 0,1.59116 -1.39226,2.386741 -3.48066,2.386741 -2.12155,0 -3.9116,-1.524862 -4.93923,-3.712707 l -4.50829,1.690607 c 1.39227,4.243094 4.80663,6.79558 9.31492,6.79558 z"
       style="font-style:normal;font-variant:normal;font-weight:900;font-stretch:normal;font-family:Overpass;-inkscape-font-specification:'Overpass Heavy';stroke-width:3.73267841"
       id="path40" /><path
       d="m 147.553,48.000001 c 4.60773,0 7.8232,-3.016574 7.8232,-7.060773 0,-2.883978 -1.62431,-5.071823 -4.01105,-6.099447 1.9558,-0.961326 2.98343,-2.718232 2.98343,-4.80663 0,-3.348066 -2.78453,-6.033149 -6.79558,-6.033149 -3.9779,0 -6.76243,2.685083 -6.76243,6.033149 0,2.088398 1.06077,3.845304 2.95027,4.80663 -2.32044,0.994475 -3.9779,3.215469 -3.9779,6.099447 0,4.044199 3.21547,7.060773 7.79006,7.060773 z m 0,-14.320441 c -2.32044,0 -3.84531,-1.491713 -3.84531,-3.414365 0,-2.187845 1.62431,-3.58011 3.84531,-3.58011 2.25414,0 3.87845,1.392265 3.87845,3.58011 0,1.922652 -1.55801,3.414365 -3.87845,3.414365 z m 0,11.602209 c -2.78453,0 -4.80663,-1.756906 -4.80663,-4.574585 0,-2.486188 1.9558,-4.607735 4.80663,-4.607735 2.85083,0 4.83978,2.121547 4.83978,4.607735 0,2.817679 -2.05525,4.574585 -4.83978,4.574585 z"
       style="stroke-width:3.73267841"
       id="path42" /></g></svg>